# xmcd
# 
# Track frame offsets:
#     150
#     19625
#     37687
#     50452
#     68645
#     89197
#     111565
#     129197
#     154605
#     174660
#     195622
#     221002
#     248260
# 
# Disc length: 3518
# 
# Revision: 2
# Processed by: cddbd v1.5.2PL0 Copyright (c) Steve Scherf et al.
# Submitted via: fre:ac v1.0.27
# 
DISCID=a70dbc0d
DTITLE=Teofilo Chantre - Teofilo Chantre
DYEAR=2004
DGENRE=Cap Vert
TTITLE0=Bola azul
TTITLE1=Nada mas nada menos
TTITLE2=Des bleuets dans les blés
TTITLE3=Mãe pa fidge
TTITLE4=Amor dum
TTITLE5=Canta cabo verde
TTITLE6=Promessa
TTITLE7=Segredo na luar
TTITLE8=Hoje
TTITLE9=Vadiamundo
TTITLE10=Fonte di nha sodade
TTITLE11=Encanto di cretcheu
TTITLE12=Um novo amor
EXTD=
EXTT0=
EXTT1=
EXTT2=
EXTT3=
EXTT4=
EXTT5=
EXTT6=
EXTT7=
EXTT8=
EXTT9=
EXTT10=
EXTT11=
EXTT12=
PLAYORDER=
